<svg
  xmlns="http://www.w3.org/2000/svg"
  width="256"
  height="768"
  viewBox="0 0 256 768"
  shape-rendering="crispEdges"
>
  <defs>
    <pattern id="rock" width="24" height="20" patternUnits="userSpaceOnUse">
      <rect width="24" height="20" fill="#262938" />
      <path
        d="M0 2h15v1H0zm17 0h7v1h-7zM8 12h16v1H8zM0 12h5v1H0z"
        fill="#323648"
      />
      <path d="M16 2h1v9h-1zM6 12h1v8H6z" fill="#1d2130" />
    </pattern>
    <g id="pine">
      <path
        d="M12 0h4v7h4v6h4v5h4v5h-5v3h9v5h-7v3h11v5H0v-5h10v-3H4v-5h9v-3H8v-5h4v-5h-4V7h4z"
        fill="#345447"
      />
      <path d="M12 13h4v5h-4zm-4 12h8v3H8zm-3 10h13v3H5z" fill="#53765a" />
      <path d="M15 36h5v13h-5z" fill="#795a43" />
      <path d="M18 36h2v13h-2z" fill="#4d3b36" />
    </g>
    <g id="lamp">
      <rect x="4" width="1" height="8" fill="#6b7182" />
      <rect x="1" y="7" width="7" height="2" fill="#ad8358" />
      <rect y="9" width="9" height="10" fill="#79563d" />
      <rect x="2" y="9" width="5" height="8" fill="#f0ca7e" />
      <rect x="3" y="10" width="2" height="5" fill="#fff1bc" />
      <rect x="1" y="18" width="7" height="2" fill="#ad8358" />
    </g>
    <g id="crate">
      <rect width="18" height="17" fill="#4e3b33" />
      <rect x="1" y="1" width="16" height="14" fill="#99704b" />
      <path
        d="M2 3h14v2H2zm0 8h14v2H2zM5 2h2v12H5zm7 0h2v12h-2z"
        fill="#bd9560"
      />
      <path d="M1 15h16v2H1z" fill="#694b37" />
    </g>
    <g id="bookcase">
      <rect width="37" height="49" fill="#171b28" />
      <rect width="3" height="49" fill="#79563d" />
      <rect x="34" width="3" height="49" fill="#79563d" />
      <path
        d="M0 0h37v3H0zm0 16h37v3H0zm0 16h37v3H0zm0 16h37v2H0z"
        fill="#ad8358"
      />
      <path d="M5 5h4v11H5zm18 16h4v11h-4zm-12 17h4v10h-4z" fill="#8aaa82" />
      <path d="M11 7h3v9h-3zm-6 16h5v9H5zm19 13h4v12h-4z" fill="#c18367" />
      <path d="M17 4h5v12h-5zm-5 17h3v11h-3zm-7 15h3v12H5z" fill="#7888aa" />
      <path
        d="M26 7h4v9h-4zm-8 16h3v9h-3zm-1 13h4v12h-4zm14 2h2v10h-2z"
        fill="#d4b777"
      />
    </g>
    <g id="miner">
      <path d="M5 0h7v2h3v4H2V2h3z" fill="#e0ad5b" />
      <rect x="7" y="2" width="4" height="3" fill="#fff1bc" />
      <rect x="4" y="6" width="9" height="6" fill="#c99573" />
      <rect x="11" y="7" width="2" height="2" fill="#171b28" />
      <path d="M3 12h10v9H3zM0 14h3v6H0z" fill="#62818e" />
      <path d="M6 12h2v8H6zm6 2h4v5h-4z" fill="#96b7b0" />
      <path d="M3 21h4v4H3zm7 0h4v4h-4z" fill="#39364d" />
      <path d="M2 24h6v2H2zm8 0h6v2h-6z" fill="#111421" />
    </g>
    <g id="fern">
      <path
        d="M8 4h2v18H8zM4 5h4v3H4zM0 1h4v4H0zm10 7h4v3h-4zm4-4h4v4h-4zM2 12h6v3H2zm8 3h6v3h-6z"
        fill="#6f9b72"
      />
      <path d="M8 8h1v14H8zM4 5h4v1H4zm6 3h4v1h-4z" fill="#a0bf7a" />
    </g>
    <g id="mushroom">
      <rect x="6" y="7" width="3" height="12" fill="#b0c2b3" />
      <path d="M4 0h7v2h3v3h2v4H0V5h2V2h2z" fill="#709f9b" />
      <path d="M4 2h3v2H4zm5 3h3v2H9z" fill="#c0dec2" />
    </g>
  </defs>
  <g id="surface">
    <rect x="23" y="7" width="1" height="2" fill="#f0ca7e" />
    <rect x="106" y="38" width="1" height="1" fill="#626b83" />
    <rect x="189" y="69" width="1" height="1" fill="#626b83" />
    <rect x="22" y="100" width="1" height="1" fill="#f0ca7e" />
    <rect x="105" y="16" width="1" height="1" fill="#626b83" />
    <rect x="188" y="47" width="1" height="1" fill="#626b83" />
    <rect x="21" y="78" width="1" height="1" fill="#f0ca7e" />
    <rect x="104" y="109" width="1" height="1" fill="#626b83" />
    <rect x="187" y="25" width="1" height="2" fill="#626b83" />
    <rect x="20" y="56" width="1" height="1" fill="#f0ca7e" />
    <rect x="103" y="87" width="1" height="1" fill="#626b83" />
    <rect x="186" y="3" width="1" height="1" fill="#626b83" />
    <rect x="19" y="34" width="1" height="1" fill="#f0ca7e" />
    <rect x="102" y="65" width="1" height="1" fill="#626b83" />
    <rect x="185" y="96" width="1" height="1" fill="#626b83" />
    <rect x="18" y="12" width="1" height="1" fill="#f0ca7e" />
    <rect x="101" y="43" width="1" height="2" fill="#626b83" />
    <rect x="184" y="74" width="1" height="1" fill="#626b83" />
    <rect x="17" y="105" width="1" height="1" fill="#f0ca7e" />
    <rect x="100" y="21" width="1" height="1" fill="#626b83" />
    <rect x="183" y="52" width="1" height="1" fill="#626b83" />
    <rect x="16" y="83" width="1" height="1" fill="#f0ca7e" />
    <rect x="99" y="114" width="1" height="1" fill="#626b83" />
    <rect x="182" y="30" width="1" height="1" fill="#626b83" />
    <rect x="15" y="61" width="1" height="2" fill="#f0ca7e" />
    <rect x="98" y="92" width="1" height="1" fill="#626b83" />
    <rect x="181" y="8" width="1" height="1" fill="#626b83" />
    <rect x="14" y="39" width="1" height="1" fill="#f0ca7e" />
    <rect x="97" y="70" width="1" height="1" fill="#626b83" />
    <path d="M213 23h12v3h3v12h-3v3h-12v-3h-3V26h3z" fill="#d4d3b0" />
    <path d="M219 21h11v12h-5v5h-6z" fill="#161925" />
    <use href="#pine" x="32" y="73" />
    <use href="#pine" x="213" y="78" />
    <use href="#pine" x="7" y="93" />
    <path
      d="M0 132h15v-5h23v3h23v-6h29v3h29v-3h26v4h39v-4h26v4h27v-5h19v24H0z"
      fill="#41624b"
    />
    <path
      d="M0 137h27v-4h40v-3h43v3h48v-2h30v-2h35v3h33v16H0z"
      fill="#78945f"
    />
    <rect x="0" y="144" width="256" height="624" fill="url(#rock)" />
    <rect x="0" y="144" width="256" height="5" fill="#98714d" />
    <rect x="0" y="149" width="256" height="5" fill="#604c40" />
    <path
      d="M0 154h8v45H0zm0 91h6v35H0zm0 137h7v42H0zm0 181h8v42H0zm0 134h7v50H0zM248 174h8v55h-8zm2 116h6v34h-6zm-3 138h9v55h-9zm1 154h8v30h-8zm0 116h8v47h-8z"
      fill="#161925"
    />
    <rect x="124" y="137" width="34" height="620" fill="#111522" />
    <rect x="125" y="136" width="3" height="621" fill="#5e6578" />
    <rect x="153" y="136" width="3" height="621" fill="#5e6578" />
    <rect x="128" y="137" width="1" height="620" fill="#303648" />
    <rect x="152" y="137" width="1" height="620" fill="#303648" />
    <rect x="125" y="153" width="31" height="3" fill="#333e4d" />
    <rect x="130" y="153" width="21" height="1" fill="#626b7b" />
    <rect x="125" y="179" width="31" height="3" fill="#333e4d" />
    <rect x="130" y="179" width="21" height="1" fill="#626b7b" />
    <rect x="125" y="205" width="31" height="3" fill="#333e4d" />
    <rect x="130" y="205" width="21" height="1" fill="#626b7b" />
    <rect x="125" y="231" width="31" height="3" fill="#333e4d" />
    <rect x="130" y="231" width="21" height="1" fill="#626b7b" />
    <rect x="125" y="257" width="31" height="3" fill="#333e4d" />
    <rect x="130" y="257" width="21" height="1" fill="#626b7b" />
    <rect x="125" y="283" width="31" height="3" fill="#333e4d" />
    <rect x="130" y="283" width="21" height="1" fill="#626b7b" />
    <rect x="125" y="309" width="31" height="3" fill="#333e4d" />
    <rect x="130" y="309" width="21" height="1" fill="#626b7b" />
    <rect x="125" y="335" width="31" height="3" fill="#333e4d" />
    <rect x="130" y="335" width="21" height="1" fill="#626b7b" />
    <rect x="125" y="361" width="31" height="3" fill="#333e4d" />
    <rect x="130" y="361" width="21" height="1" fill="#626b7b" />
    <rect x="125" y="387" width="31" height="3" fill="#333e4d" />
    <rect x="130" y="387" width="21" height="1" fill="#626b7b" />
    <rect x="125" y="413" width="31" height="3" fill="#333e4d" />
    <rect x="130" y="413" width="21" height="1" fill="#626b7b" />
    <rect x="125" y="439" width="31" height="3" fill="#333e4d" />
    <rect x="130" y="439" width="21" height="1" fill="#626b7b" />
    <rect x="125" y="465" width="31" height="3" fill="#333e4d" />
    <rect x="130" y="465" width="21" height="1" fill="#626b7b" />
    <rect x="125" y="491" width="31" height="3" fill="#333e4d" />
    <rect x="130" y="491" width="21" height="1" fill="#626b7b" />
    <rect x="125" y="517" width="31" height="3" fill="#333e4d" />
    <rect x="130" y="517" width="21" height="1" fill="#626b7b" />
    <rect x="125" y="543" width="31" height="3" fill="#333e4d" />
    <rect x="130" y="543" width="21" height="1" fill="#626b7b" />
    <rect x="125" y="569" width="31" height="3" fill="#333e4d" />
    <rect x="130" y="569" width="21" height="1" fill="#626b7b" />
    <rect x="125" y="595" width="31" height="3" fill="#333e4d" />
    <rect x="130" y="595" width="21" height="1" fill="#626b7b" />
    <rect x="125" y="621" width="31" height="3" fill="#333e4d" />
    <rect x="130" y="621" width="21" height="1" fill="#626b7b" />
    <rect x="125" y="647" width="31" height="3" fill="#333e4d" />
    <rect x="130" y="647" width="21" height="1" fill="#626b7b" />
    <rect x="125" y="673" width="31" height="3" fill="#333e4d" />
    <rect x="130" y="673" width="21" height="1" fill="#626b7b" />
    <rect x="125" y="699" width="31" height="3" fill="#333e4d" />
    <rect x="130" y="699" width="21" height="1" fill="#626b7b" />
    <rect x="125" y="725" width="31" height="3" fill="#333e4d" />
    <rect x="130" y="725" width="21" height="1" fill="#626b7b" />
    <rect x="111" y="58" width="7" height="79" fill="#694b37" />
    <rect x="160" y="58" width="7" height="79" fill="#694b37" />
    <rect x="111" y="58" width="3" height="79" fill="#ae8355" />
    <rect x="160" y="58" width="3" height="79" fill="#ae8355" />
    <rect x="106" y="53" width="66" height="8" fill="#99704b" />
    <rect x="106" y="53" width="66" height="2" fill="#c09c66" />
    <path
      d="M115 104h4v-8h4v-8h4v-8h4v-8h4v-8h4v-7h4v9h-4v8h-4v8h-4v8h-4v8h-4v8h-8z"
      fill="#694b37"
    />
    <path d="M132 36h12v3h3v12h-3v3h-12v-3h-3V39h3z" fill="#ad8358" />
    <path d="M134 39h8v3h3v6h-3v3h-8v-3h-3v-6h3z" fill="#303648" />
    <path d="M137 37h2v16h-2zM130 44h16v2h-16z" fill="#ad8358" />
    <rect x="139" y="53" width="1" height="67" fill="#aab2af" />
    <rect x="109" y="102" width="59" height="35" fill="#4e3b33" />
    <rect x="113" y="104" width="51" height="33" fill="#79563d" />
    <rect x="128" y="110" width="25" height="28" fill="#171b28" />
    <path d="M108 93h59v3h6v7h-71v-7h6z" fill="#856044" />
    <path d="M102 100h71v3h-71z" fill="#be955f" />
    <rect x="115" y="82" width="47" height="13" fill="#4b443b" />
    <rect x="115" y="82" width="47" height="1" fill="#d4b777" />
    <rect x="123" y="86" width="1" height="1" fill="#f0ca7e" />
    <rect x="124" y="86" width="1" height="1" fill="#f0ca7e" />
    <rect x="125" y="86" width="1" height="1" fill="#f0ca7e" />
    <rect x="123" y="87" width="1" height="1" fill="#f0ca7e" />
    <rect x="123" y="88" width="1" height="1" fill="#f0ca7e" />
    <rect x="123" y="89" width="1" height="1" fill="#f0ca7e" />
    <rect x="123" y="90" width="1" height="1" fill="#f0ca7e" />
    <rect x="124" y="90" width="1" height="1" fill="#f0ca7e" />
    <rect x="125" y="90" width="1" height="1" fill="#f0ca7e" />
    <rect x="127" y="86" width="1" height="1" fill="#f0ca7e" />
    <rect x="128" y="86" width="1" height="1" fill="#f0ca7e" />
    <rect x="129" y="86" width="1" height="1" fill="#f0ca7e" />
    <rect x="127" y="87" width="1" height="1" fill="#f0ca7e" />
    <rect x="129" y="87" width="1" height="1" fill="#f0ca7e" />
    <rect x="127" y="88" width="1" height="1" fill="#f0ca7e" />
    <rect x="129" y="88" width="1" height="1" fill="#f0ca7e" />
    <rect x="127" y="89" width="1" height="1" fill="#f0ca7e" />
    <rect x="129" y="89" width="1" height="1" fill="#f0ca7e" />
    <rect x="127" y="90" width="1" height="1" fill="#f0ca7e" />
    <rect x="128" y="90" width="1" height="1" fill="#f0ca7e" />
    <rect x="129" y="90" width="1" height="1" fill="#f0ca7e" />
    <rect x="131" y="86" width="1" height="1" fill="#f0ca7e" />
    <rect x="132" y="86" width="1" height="1" fill="#f0ca7e" />
    <rect x="131" y="87" width="1" height="1" fill="#f0ca7e" />
    <rect x="133" y="87" width="1" height="1" fill="#f0ca7e" />
    <rect x="131" y="88" width="1" height="1" fill="#f0ca7e" />
    <rect x="133" y="88" width="1" height="1" fill="#f0ca7e" />
    <rect x="131" y="89" width="1" height="1" fill="#f0ca7e" />
    <rect x="133" y="89" width="1" height="1" fill="#f0ca7e" />
    <rect x="131" y="90" width="1" height="1" fill="#f0ca7e" />
    <rect x="132" y="90" width="1" height="1" fill="#f0ca7e" />
    <rect x="135" y="86" width="1" height="1" fill="#f0ca7e" />
    <rect x="136" y="86" width="1" height="1" fill="#f0ca7e" />
    <rect x="137" y="86" width="1" height="1" fill="#f0ca7e" />
    <rect x="135" y="87" width="1" height="1" fill="#f0ca7e" />
    <rect x="135" y="88" width="1" height="1" fill="#f0ca7e" />
    <rect x="136" y="88" width="1" height="1" fill="#f0ca7e" />
    <rect x="135" y="89" width="1" height="1" fill="#f0ca7e" />
    <rect x="135" y="90" width="1" height="1" fill="#f0ca7e" />
    <rect x="136" y="90" width="1" height="1" fill="#f0ca7e" />
    <rect x="137" y="90" width="1" height="1" fill="#f0ca7e" />
    <rect x="139" y="86" width="1" height="1" fill="#f0ca7e" />
    <rect x="141" y="86" width="1" height="1" fill="#f0ca7e" />
    <rect x="139" y="87" width="1" height="1" fill="#f0ca7e" />
    <rect x="140" y="87" width="1" height="1" fill="#f0ca7e" />
    <rect x="141" y="87" width="1" height="1" fill="#f0ca7e" />
    <rect x="139" y="88" width="1" height="1" fill="#f0ca7e" />
    <rect x="140" y="88" width="1" height="1" fill="#f0ca7e" />
    <rect x="141" y="88" width="1" height="1" fill="#f0ca7e" />
    <rect x="139" y="89" width="1" height="1" fill="#f0ca7e" />
    <rect x="141" y="89" width="1" height="1" fill="#f0ca7e" />
    <rect x="139" y="90" width="1" height="1" fill="#f0ca7e" />
    <rect x="141" y="90" width="1" height="1" fill="#f0ca7e" />
    <rect x="143" y="86" width="1" height="1" fill="#f0ca7e" />
    <rect x="144" y="86" width="1" height="1" fill="#f0ca7e" />
    <rect x="145" y="86" width="1" height="1" fill="#f0ca7e" />
    <rect x="144" y="87" width="1" height="1" fill="#f0ca7e" />
    <rect x="144" y="88" width="1" height="1" fill="#f0ca7e" />
    <rect x="144" y="89" width="1" height="1" fill="#f0ca7e" />
    <rect x="143" y="90" width="1" height="1" fill="#f0ca7e" />
    <rect x="144" y="90" width="1" height="1" fill="#f0ca7e" />
    <rect x="145" y="90" width="1" height="1" fill="#f0ca7e" />
    <rect x="147" y="86" width="1" height="1" fill="#f0ca7e" />
    <rect x="149" y="86" width="1" height="1" fill="#f0ca7e" />
    <rect x="147" y="87" width="1" height="1" fill="#f0ca7e" />
    <rect x="148" y="87" width="1" height="1" fill="#f0ca7e" />
    <rect x="149" y="87" width="1" height="1" fill="#f0ca7e" />
    <rect x="147" y="88" width="1" height="1" fill="#f0ca7e" />
    <rect x="148" y="88" width="1" height="1" fill="#f0ca7e" />
    <rect x="149" y="88" width="1" height="1" fill="#f0ca7e" />
    <rect x="147" y="89" width="1" height="1" fill="#f0ca7e" />
    <rect x="148" y="89" width="1" height="1" fill="#f0ca7e" />
    <rect x="149" y="89" width="1" height="1" fill="#f0ca7e" />
    <rect x="147" y="90" width="1" height="1" fill="#f0ca7e" />
    <rect x="149" y="90" width="1" height="1" fill="#f0ca7e" />
    <rect x="151" y="86" width="1" height="1" fill="#f0ca7e" />
    <rect x="152" y="86" width="1" height="1" fill="#f0ca7e" />
    <rect x="153" y="86" width="1" height="1" fill="#f0ca7e" />
    <rect x="151" y="87" width="1" height="1" fill="#f0ca7e" />
    <rect x="151" y="88" width="1" height="1" fill="#f0ca7e" />
    <rect x="152" y="88" width="1" height="1" fill="#f0ca7e" />
    <rect x="151" y="89" width="1" height="1" fill="#f0ca7e" />
    <rect x="151" y="90" width="1" height="1" fill="#f0ca7e" />
    <rect x="152" y="90" width="1" height="1" fill="#f0ca7e" />
    <rect x="153" y="90" width="1" height="1" fill="#f0ca7e" />
    <use href="#lamp" x="135" y="107" />
    <rect x="181" y="83" width="3" height="48" fill="#99704b" />
    <rect x="175" y="85" width="15" height="2" fill="#c09c66" />
    <rect x="181" y="69" width="6" height="6" fill="#f0ca7e" />
    <rect x="179" y="72" width="8" height="5" fill="#e0ad5b" />
    <rect x="186" y="72" width="3" height="2" fill="#c18367" />
    <rect x="185" y="70" width="1" height="1" fill="#111421" />
    <rect x="178" y="75" width="3" height="3" fill="#e0ad5b" />
    <use href="#crate" x="89" y="122" />
    <rect x="199" y="126" width="7" height="3" fill="#c99573" />
    <rect x="204" y="123" width="3" height="3" fill="#e0ad5b" />
  </g>
  <g id="workshop">
    <path
      d="M33 197h84v6h9v83H24v-77h9zM166 197h63v6h9v83h-80v-77h8z"
      fill="#171b28"
    />
    <rect x="26" y="205" width="5" height="85" fill="#694b37" />
    <rect x="26" y="205" width="1" height="85" fill="#ad8358" />
    <rect x="117" y="205" width="5" height="85" fill="#694b37" />
    <rect x="117" y="205" width="1" height="85" fill="#ad8358" />
    <rect x="159" y="205" width="5" height="85" fill="#694b37" />
    <rect x="159" y="205" width="1" height="85" fill="#ad8358" />
    <rect x="230" y="205" width="5" height="85" fill="#694b37" />
    <rect x="230" y="205" width="1" height="85" fill="#ad8358" />
    <rect x="24" y="204" width="104" height="6" fill="#99704b" />
    <rect x="158" y="204" width="80" height="6" fill="#99704b" />
    <rect x="24" y="204" width="104" height="1" fill="#c09c66" />
    <rect x="158" y="204" width="80" height="1" fill="#c09c66" />
    <rect x="21" y="286" width="107" height="6" fill="#99704b" />
    <rect x="157" y="286" width="84" height="6" fill="#99704b" />
    <rect x="21" y="286" width="107" height="1" fill="#c09c66" />
    <rect x="157" y="286" width="84" height="1" fill="#c09c66" />
    <rect x="34" y="288" width="1" height="4" fill="#4e3b33" />
    <rect x="63" y="288" width="1" height="4" fill="#4e3b33" />
    <rect x="93" y="288" width="1" height="4" fill="#4e3b33" />
    <rect x="166" y="288" width="1" height="4" fill="#4e3b33" />
    <rect x="195" y="288" width="1" height="4" fill="#4e3b33" />
    <rect x="224" y="288" width="1" height="4" fill="#4e3b33" />
    <rect x="36" y="220" width="46" height="28" fill="#343441" />
    <rect x="38" y="222" width="42" height="24" fill="#604c40" />
    <rect x="42" y="226" width="2" height="11" fill="#9ba7ae" />
    <rect x="40" y="226" width="6" height="2" fill="#9ba7ae" />
    <rect x="49" y="226" width="2" height="10" fill="#9ba7ae" />
    <rect x="47" y="226" width="6" height="2" fill="#9ba7ae" />
    <rect x="56" y="226" width="2" height="9" fill="#9ba7ae" />
    <rect x="54" y="226" width="6" height="2" fill="#9ba7ae" />
    <rect x="63" y="226" width="2" height="11" fill="#9ba7ae" />
    <rect x="61" y="226" width="6" height="2" fill="#9ba7ae" />
    <rect x="70" y="226" width="2" height="10" fill="#9ba7ae" />
    <rect x="68" y="226" width="6" height="2" fill="#9ba7ae" />
    <rect x="33" y="261" width="77" height="4" fill="#be955f" />
    <rect x="33" y="265" width="77" height="7" fill="#79563d" />
    <rect x="37" y="271" width="5" height="15" fill="#99704b" />
    <rect x="102" y="271" width="5" height="15" fill="#99704b" />
    <rect x="78" y="245" width="22" height="15" fill="#627582" />
    <rect x="80" y="247" width="18" height="11" fill="#283e4b" />
    <rect x="81" y="250" width="6" height="1" fill="#a0bf7a" />
    <rect x="81" y="253" width="12" height="1" fill="#6c9a9b" />
    <rect x="81" y="256" width="8" height="1" fill="#d4b777" />
    <rect x="76" y="260" width="26" height="2" fill="#9ba7ae" />
    <rect x="105" y="254" width="5" height="7" fill="#c99573" />
    <rect x="110" y="255" width="2" height="4" fill="#c99573" />
    <use href="#miner" x="57" y="260" />
    <use href="#lamp" x="94" y="207" />
    <rect x="173" y="236" width="34" height="45" fill="#604c40" />
    <rect x="176" y="231" width="28" height="4" fill="#ad8358" />
    <rect x="179" y="226" width="22" height="5" fill="#ad8358" />
    <rect x="173" y="242" width="34" height="3" fill="#99704b" />
    <rect x="173" y="267" width="34" height="3" fill="#99704b" />
    <rect x="176" y="247" width="3" height="16" fill="#ad8358" />
    <rect x="201" y="219" width="18" height="4" fill="#99704b" />
    <rect x="216" y="219" width="4" height="52" fill="#99704b" />
    <rect x="216" y="233" width="4" height="2" fill="#c09c66" />
    <rect x="215" y="267" width="7" height="3" fill="#c09c66" />
    <rect x="188" y="244" width="10" height="10" fill="#bd9560" />
    <rect x="190" y="246" width="6" height="6" fill="#333e4d" />
    <rect x="193" y="246" width="1" height="4" fill="#f0ca7e" />
    <use href="#crate" x="209" y="269" />
  </g>
  <g id="archive">
    <path
      d="M33 341h84v6h9v83H24v-77h9zM166 341h63v6h9v83h-80v-77h8z"
      fill="#171b28"
    />
    <rect x="26" y="349" width="5" height="85" fill="#694b37" />
    <rect x="26" y="349" width="1" height="85" fill="#ad8358" />
    <rect x="117" y="349" width="5" height="85" fill="#694b37" />
    <rect x="117" y="349" width="1" height="85" fill="#ad8358" />
    <rect x="159" y="349" width="5" height="85" fill="#694b37" />
    <rect x="159" y="349" width="1" height="85" fill="#ad8358" />
    <rect x="230" y="349" width="5" height="85" fill="#694b37" />
    <rect x="230" y="349" width="1" height="85" fill="#ad8358" />
    <rect x="24" y="348" width="104" height="6" fill="#99704b" />
    <rect x="158" y="348" width="80" height="6" fill="#99704b" />
    <rect x="24" y="348" width="104" height="1" fill="#c09c66" />
    <rect x="158" y="348" width="80" height="1" fill="#c09c66" />
    <rect x="21" y="430" width="107" height="6" fill="#99704b" />
    <rect x="157" y="430" width="84" height="6" fill="#99704b" />
    <rect x="21" y="430" width="107" height="1" fill="#c09c66" />
    <rect x="157" y="430" width="84" height="1" fill="#c09c66" />
    <rect x="34" y="432" width="1" height="4" fill="#4e3b33" />
    <rect x="63" y="432" width="1" height="4" fill="#4e3b33" />
    <rect x="93" y="432" width="1" height="4" fill="#4e3b33" />
    <rect x="166" y="432" width="1" height="4" fill="#4e3b33" />
    <rect x="195" y="432" width="1" height="4" fill="#4e3b33" />
    <rect x="224" y="432" width="1" height="4" fill="#4e3b33" />
    <use href="#bookcase" x="33" y="365" />
    <use href="#bookcase" x="76" y="365" />
    <use href="#bookcase" x="166" y="357" />
    <use href="#bookcase" x="201" y="373" />
    <use href="#lamp" x="90" y="351" />
    <rect x="75" y="412" width="40" height="3" fill="#79563d" />
    <rect x="77" y="415" width="3" height="15" fill="#99704b" />
    <rect x="109" y="415" width="3" height="15" fill="#99704b" />
    <rect x="83" y="408" width="13" height="4" fill="#d4d3b0" />
    <rect x="87" y="408" width="1" height="4" fill="#9ba7ae" />
    <rect x="36" y="411" width="25" height="15" fill="#446861" />
    <rect x="39" y="405" width="19" height="17" fill="#628a73" />
    <rect x="34" y="417" width="5" height="9" fill="#78945f" />
    <rect x="58" y="417" width="5" height="9" fill="#78945f" />
    <rect x="38" y="426" width="3" height="4" fill="#99704b" />
    <rect x="57" y="426" width="3" height="4" fill="#99704b" />
    <rect x="177" y="402" width="3" height="28" fill="#ad8358" />
    <rect x="190" y="402" width="3" height="28" fill="#ad8358" />
    <rect x="180" y="405" width="10" height="2" fill="#ad8358" />
    <rect x="180" y="412" width="10" height="2" fill="#ad8358" />
    <rect x="180" y="419" width="10" height="2" fill="#ad8358" />
    <rect x="180" y="426" width="10" height="2" fill="#ad8358" />
    <rect x="204" y="353" width="1" height="1" fill="#f0ca7e" />
    <rect x="205" y="353" width="1" height="1" fill="#f0ca7e" />
    <rect x="204" y="354" width="1" height="1" fill="#f0ca7e" />
    <rect x="206" y="354" width="1" height="1" fill="#f0ca7e" />
    <rect x="204" y="355" width="1" height="1" fill="#f0ca7e" />
    <rect x="205" y="355" width="1" height="1" fill="#f0ca7e" />
    <rect x="204" y="356" width="1" height="1" fill="#f0ca7e" />
    <rect x="206" y="356" width="1" height="1" fill="#f0ca7e" />
    <rect x="204" y="357" width="1" height="1" fill="#f0ca7e" />
    <rect x="205" y="357" width="1" height="1" fill="#f0ca7e" />
    <rect x="208" y="353" width="1" height="1" fill="#f0ca7e" />
    <rect x="208" y="354" width="1" height="1" fill="#f0ca7e" />
    <rect x="208" y="355" width="1" height="1" fill="#f0ca7e" />
    <rect x="208" y="356" width="1" height="1" fill="#f0ca7e" />
    <rect x="208" y="357" width="1" height="1" fill="#f0ca7e" />
    <rect x="209" y="357" width="1" height="1" fill="#f0ca7e" />
    <rect x="210" y="357" width="1" height="1" fill="#f0ca7e" />
    <rect x="212" y="353" width="1" height="1" fill="#f0ca7e" />
    <rect x="213" y="353" width="1" height="1" fill="#f0ca7e" />
    <rect x="214" y="353" width="1" height="1" fill="#f0ca7e" />
    <rect x="212" y="354" width="1" height="1" fill="#f0ca7e" />
    <rect x="214" y="354" width="1" height="1" fill="#f0ca7e" />
    <rect x="212" y="355" width="1" height="1" fill="#f0ca7e" />
    <rect x="214" y="355" width="1" height="1" fill="#f0ca7e" />
    <rect x="212" y="356" width="1" height="1" fill="#f0ca7e" />
    <rect x="214" y="356" width="1" height="1" fill="#f0ca7e" />
    <rect x="212" y="357" width="1" height="1" fill="#f0ca7e" />
    <rect x="213" y="357" width="1" height="1" fill="#f0ca7e" />
    <rect x="214" y="357" width="1" height="1" fill="#f0ca7e" />
    <rect x="216" y="353" width="1" height="1" fill="#f0ca7e" />
    <rect x="217" y="353" width="1" height="1" fill="#f0ca7e" />
    <rect x="218" y="353" width="1" height="1" fill="#f0ca7e" />
    <rect x="216" y="354" width="1" height="1" fill="#f0ca7e" />
    <rect x="216" y="355" width="1" height="1" fill="#f0ca7e" />
    <rect x="218" y="355" width="1" height="1" fill="#f0ca7e" />
    <rect x="216" y="356" width="1" height="1" fill="#f0ca7e" />
    <rect x="218" y="356" width="1" height="1" fill="#f0ca7e" />
    <rect x="216" y="357" width="1" height="1" fill="#f0ca7e" />
    <rect x="217" y="357" width="1" height="1" fill="#f0ca7e" />
    <rect x="218" y="357" width="1" height="1" fill="#f0ca7e" />
  </g>
  <g id="arcade">
    <path
      d="M33 489h84v6h9v84H24v-78h9zM166 489h63v6h9v84h-80v-78h8z"
      fill="#171b28"
    />
    <rect x="26" y="497" width="5" height="86" fill="#694b37" />
    <rect x="26" y="497" width="1" height="86" fill="#ad8358" />
    <rect x="117" y="497" width="5" height="86" fill="#694b37" />
    <rect x="117" y="497" width="1" height="86" fill="#ad8358" />
    <rect x="159" y="497" width="5" height="86" fill="#694b37" />
    <rect x="159" y="497" width="1" height="86" fill="#ad8358" />
    <rect x="230" y="497" width="5" height="86" fill="#694b37" />
    <rect x="230" y="497" width="1" height="86" fill="#ad8358" />
    <rect x="24" y="496" width="104" height="6" fill="#99704b" />
    <rect x="158" y="496" width="80" height="6" fill="#99704b" />
    <rect x="24" y="496" width="104" height="1" fill="#c09c66" />
    <rect x="158" y="496" width="80" height="1" fill="#c09c66" />
    <rect x="21" y="579" width="107" height="6" fill="#99704b" />
    <rect x="157" y="579" width="84" height="6" fill="#99704b" />
    <rect x="21" y="579" width="107" height="1" fill="#c09c66" />
    <rect x="157" y="579" width="84" height="1" fill="#c09c66" />
    <rect x="34" y="581" width="1" height="4" fill="#4e3b33" />
    <rect x="63" y="581" width="1" height="4" fill="#4e3b33" />
    <rect x="93" y="581" width="1" height="4" fill="#4e3b33" />
    <rect x="166" y="581" width="1" height="4" fill="#4e3b33" />
    <rect x="195" y="581" width="1" height="4" fill="#4e3b33" />
    <rect x="224" y="581" width="1" height="4" fill="#4e3b33" />
    <path d="M62 505h31v5h3v26h-3v7h7v8h-4v28H59v-30h3z" fill="#40636b" />
    <path d="M64 507h27v8H64z" fill="#ad8358" />
    <path d="M65 509h25v4H65z" fill="#f0ca7e" />
    <rect x="70" y="509" width="1" height="1" fill="#694b37" />
    <rect x="71" y="509" width="1" height="1" fill="#694b37" />
    <rect x="70" y="510" width="1" height="1" fill="#694b37" />
    <rect x="72" y="510" width="1" height="1" fill="#694b37" />
    <rect x="70" y="511" width="1" height="1" fill="#694b37" />
    <rect x="71" y="511" width="1" height="1" fill="#694b37" />
    <rect x="70" y="512" width="1" height="1" fill="#694b37" />
    <rect x="70" y="513" width="1" height="1" fill="#694b37" />
    <rect x="74" y="509" width="1" height="1" fill="#694b37" />
    <rect x="74" y="510" width="1" height="1" fill="#694b37" />
    <rect x="74" y="511" width="1" height="1" fill="#694b37" />
    <rect x="74" y="512" width="1" height="1" fill="#694b37" />
    <rect x="74" y="513" width="1" height="1" fill="#694b37" />
    <rect x="75" y="513" width="1" height="1" fill="#694b37" />
    <rect x="76" y="513" width="1" height="1" fill="#694b37" />
    <rect x="79" y="509" width="1" height="1" fill="#694b37" />
    <rect x="78" y="510" width="1" height="1" fill="#694b37" />
    <rect x="80" y="510" width="1" height="1" fill="#694b37" />
    <rect x="78" y="511" width="1" height="1" fill="#694b37" />
    <rect x="79" y="511" width="1" height="1" fill="#694b37" />
    <rect x="80" y="511" width="1" height="1" fill="#694b37" />
    <rect x="78" y="512" width="1" height="1" fill="#694b37" />
    <rect x="80" y="512" width="1" height="1" fill="#694b37" />
    <rect x="78" y="513" width="1" height="1" fill="#694b37" />
    <rect x="80" y="513" width="1" height="1" fill="#694b37" />
    <rect x="82" y="509" width="1" height="1" fill="#694b37" />
    <rect x="84" y="509" width="1" height="1" fill="#694b37" />
    <rect x="82" y="510" width="1" height="1" fill="#694b37" />
    <rect x="84" y="510" width="1" height="1" fill="#694b37" />
    <rect x="83" y="511" width="1" height="1" fill="#694b37" />
    <rect x="83" y="512" width="1" height="1" fill="#694b37" />
    <rect x="83" y="513" width="1" height="1" fill="#694b37" />
    <rect x="64" y="520" width="26" height="23" fill="#101522" />
    <rect x="66" y="522" width="22" height="19" fill="#223040" />
    <rect x="67" y="537" width="3" height="3" fill="#d4b777" />
    <rect x="71" y="537" width="3" height="3" fill="#d4b777" />
    <rect x="75" y="537" width="3" height="3" fill="#c18367" />
    <rect x="79" y="537" width="3" height="3" fill="#c18367" />
    <rect x="83" y="537" width="3" height="3" fill="#8aaa82" />
    <rect x="67" y="533" width="3" height="3" fill="#7888aa" />
    <rect x="75" y="533" width="3" height="3" fill="#c18367" />
    <rect x="83" y="533" width="3" height="3" fill="#8aaa82" />
    <rect x="83" y="529" width="3" height="3" fill="#8aaa82" />
    <rect x="75" y="525" width="3" height="3" fill="#6c9a9b" />
    <rect x="79" y="525" width="3" height="3" fill="#6c9a9b" />
    <rect x="61" y="547" width="36" height="3" fill="#709f9b" />
    <rect x="66" y="543" width="2" height="5" fill="#c18367" />
    <rect x="64" y="542" width="6" height="3" fill="#c18367" />
    <rect x="82" y="545" width="3" height="2" fill="#e0ad5b" />
    <rect x="89" y="545" width="3" height="2" fill="#c18367" />
    <rect x="72" y="558" width="10" height="14" fill="#171b28" />
    <rect x="76" y="561" width="3" height="1" fill="#ad8358" />
    <rect x="100" y="564" width="17" height="4" fill="#c18367" />
    <rect x="104" y="568" width="2" height="11" fill="#99704b" />
    <rect x="112" y="568" width="2" height="11" fill="#99704b" />
    <use href="#lamp" x="204" y="499" />
    <rect x="168" y="517" width="37" height="27" fill="#99704b" />
    <rect x="170" y="519" width="33" height="23" fill="#333e4d" />
    <rect x="175" y="531" width="13" height="7" fill="#6c9a9b" />
    <rect x="181" y="526" width="14" height="12" fill="#7888aa" />
    <rect x="196" y="522" width="3" height="3" fill="#f0ca7e" />
    <rect x="176" y="558" width="42" height="17" fill="#795651" />
    <rect x="180" y="550" width="34" height="21" fill="#a87062" />
    <rect x="173" y="562" width="8" height="13" fill="#c18367" />
    <rect x="213" y="562" width="8" height="13" fill="#c18367" />
    <rect x="179" y="575" width="3" height="4" fill="#604c40" />
    <rect x="214" y="575" width="3" height="4" fill="#604c40" />
  </g>
  <g id="garden">
    <path
      d="M33 637h84v6h9v95H24v-89h9zM166 637h63v6h9v95h-80v-89h8z"
      fill="#171b28"
    />
    <rect x="26" y="645" width="5" height="97" fill="#694b37" />
    <rect x="26" y="645" width="1" height="97" fill="#ad8358" />
    <rect x="117" y="645" width="5" height="97" fill="#694b37" />
    <rect x="117" y="645" width="1" height="97" fill="#ad8358" />
    <rect x="159" y="645" width="5" height="97" fill="#694b37" />
    <rect x="159" y="645" width="1" height="97" fill="#ad8358" />
    <rect x="230" y="645" width="5" height="97" fill="#694b37" />
    <rect x="230" y="645" width="1" height="97" fill="#ad8358" />
    <rect x="24" y="644" width="104" height="6" fill="#99704b" />
    <rect x="158" y="644" width="80" height="6" fill="#99704b" />
    <rect x="24" y="644" width="104" height="1" fill="#c09c66" />
    <rect x="158" y="644" width="80" height="1" fill="#c09c66" />
    <rect x="21" y="738" width="107" height="6" fill="#99704b" />
    <rect x="157" y="738" width="84" height="6" fill="#99704b" />
    <rect x="21" y="738" width="107" height="1" fill="#c09c66" />
    <rect x="157" y="738" width="84" height="1" fill="#c09c66" />
    <rect x="34" y="740" width="1" height="4" fill="#4e3b33" />
    <rect x="63" y="740" width="1" height="4" fill="#4e3b33" />
    <rect x="93" y="740" width="1" height="4" fill="#4e3b33" />
    <rect x="166" y="740" width="1" height="4" fill="#4e3b33" />
    <rect x="195" y="740" width="1" height="4" fill="#4e3b33" />
    <rect x="224" y="740" width="1" height="4" fill="#4e3b33" />
    <rect x="26" y="709" width="98" height="29" fill="#253f47" />
    <rect x="158" y="709" width="77" height="29" fill="#253f47" />
    <rect x="38" y="715" width="68" height="17" fill="#3f6970" />
    <rect x="168" y="718" width="49" height="16" fill="#3f6970" />
    <rect x="36" y="713" width="5" height="1" fill="#709f9b" />
    <rect x="73" y="720" width="6" height="1" fill="#709f9b" />
    <rect x="110" y="727" width="7" height="1" fill="#709f9b" />
    <rect x="184" y="719" width="5" height="1" fill="#709f9b" />
    <rect x="221" y="726" width="6" height="1" fill="#709f9b" />
    <rect x="66" y="733" width="7" height="1" fill="#709f9b" />
    <rect x="103" y="718" width="8" height="1" fill="#709f9b" />
    <rect x="177" y="732" width="6" height="1" fill="#709f9b" />
    <rect x="214" y="717" width="7" height="1" fill="#709f9b" />
    <rect x="59" y="724" width="8" height="1" fill="#709f9b" />
    <rect x="96" y="731" width="5" height="1" fill="#709f9b" />
    <rect x="170" y="723" width="7" height="1" fill="#709f9b" />
    <rect x="102" y="665" width="5" height="53" fill="#40636b" />
    <rect x="104" y="669" width="2" height="45" fill="#709f9b" />
    <rect x="107" y="687" width="3" height="31" fill="#40636b" />
    <rect x="96" y="716" width="21" height="2" fill="#9fc4b6" />
    <rect x="34" y="706" width="58" height="8" fill="#41624b" />
    <rect x="37" y="706" width="5" height="3" fill="#78945f" />
    <rect x="81" y="706" width="8" height="3" fill="#78945f" />
    <rect x="41" y="686" width="37" height="4" fill="#ad8358" />
    <rect x="41" y="692" width="37" height="4" fill="#99704b" />
    <rect x="39" y="699" width="41" height="3" fill="#ad8358" />
    <rect x="43" y="702" width="3" height="6" fill="#79563d" />
    <rect x="74" y="702" width="3" height="6" fill="#79563d" />
    <use href="#fern" x="29" y="683" />
    <use href="#fern" x="112" y="692" />
    <use href="#fern" x="211" y="684" />
    <use href="#fern" x="164" y="685" />
    <use href="#mushroom" x="185" y="688" />
    <use href="#mushroom" x="209" y="711" />
    <use href="#mushroom" x="31" y="718" />
    <rect x="46" y="650" width="174" height="1" fill="#626b7b" />
    <rect x="48" y="651" width="1" height="4" fill="#626b7b" />
    <rect x="47" y="655" width="3" height="4" fill="#f0ca7e" />
    <rect x="69" y="651" width="1" height="4" fill="#626b7b" />
    <rect x="68" y="655" width="3" height="4" fill="#f0ca7e" />
    <rect x="90" y="651" width="1" height="4" fill="#626b7b" />
    <rect x="89" y="655" width="3" height="4" fill="#f0ca7e" />
    <rect x="111" y="651" width="1" height="4" fill="#626b7b" />
    <rect x="110" y="655" width="3" height="4" fill="#f0ca7e" />
    <rect x="132" y="651" width="1" height="4" fill="#626b7b" />
    <rect x="131" y="655" width="3" height="4" fill="#f0ca7e" />
    <rect x="153" y="651" width="1" height="4" fill="#626b7b" />
    <rect x="152" y="655" width="3" height="4" fill="#f0ca7e" />
    <rect x="174" y="651" width="1" height="4" fill="#626b7b" />
    <rect x="173" y="655" width="3" height="4" fill="#f0ca7e" />
    <rect x="195" y="651" width="1" height="4" fill="#626b7b" />
    <rect x="194" y="655" width="3" height="4" fill="#f0ca7e" />
    <rect x="216" y="651" width="1" height="4" fill="#626b7b" />
    <rect x="215" y="655" width="3" height="4" fill="#f0ca7e" />
    <use href="#lamp" x="80" y="685" />
  </g>
  <path d="M16 175h3v-5h3v9h-6zm7-7h3v11h-3z" fill="#709f9b" />
  <path d="M236 320h3v-5h3v9h-6zm7-7h3v11h-3z" fill="#709f9b" />
  <path d="M13 461h3v-5h3v9h-6zm7-7h3v11h-3z" fill="#709f9b" />
  <path d="M231 615h3v-5h3v9h-6zm7-7h3v11h-3z" fill="#709f9b" />
  <path d="M8 671h3v-5h3v9h-6zm7-7h3v11h-3z" fill="#709f9b" />
</svg>
